<svg xmlns="http://www.w3.org/2000/svg" viewBox="0 0 920 310" width="100%" height="100%" fill="none">
  <defs>
    <linearGradient id="sc-bg" x1="0%" y1="0%" x2="100%" y2="100%">
      <stop offset="0%" stop-color="#0E0E0E"/>
      <stop offset="100%" stop-color="#070707"/>
    </linearGradient>

    <style>
      .font-mono { font-family: ui-monospace, SFMono-Regular, "SF Mono", Menlo, Consolas, monospace; }
      .font-sans { font-family: -apple-system, BlinkMacSystemFont, "Segoe UI", Roboto, sans-serif; }

      @keyframes packetTravel {
        0% { stroke-dashoffset: 300; }
        100% { stroke-dashoffset: 0; }
      }

      @keyframes hubBreathing {
        0%, 100% { transform: scale(1); filter: drop-shadow(0 0 4px rgba(255, 106, 31, 0.4)); }
        50% { transform: scale(1.05); filter: drop-shadow(0 0 12px rgba(255, 106, 31, 0.8)); }
      }

      .packet-flow {
        stroke-dasharray: 20 120;
        animation: packetTravel 3s linear infinite;
      }

      .packet-flow-fast {
        stroke-dasharray: 25 100;
        animation: packetTravel 2.4s linear infinite;
      }

      .pulse-hub {
        animation: hubBreathing 4s ease-in-out infinite;
        transform-origin: 460px 165px;
      }
    </style>
  </defs>

  <!-- Base Plate -->
  <rect width="920" height="310" rx="10" fill="url(#sc-bg)"/>
  <rect width="918" height="308" x="1" y="1" rx="9" fill="none" stroke="#242424" stroke-width="1"/>

  <!-- Top Title -->
  <g transform="translate(35, 32)">
    <text x="0" y="0" fill="#F5F5F0" font-size="12" font-weight="700" letter-spacing="1.5" class="font-mono">ARCHITECTURE CONSTELLATION // LIVE TOPOLOGY</text>
    <text x="850" y="0" text-anchor="end" fill="#666666" font-size="9.5" class="font-mono">DYNAMIC DATASTREAM</text>
  </g>

  <!-- Static Track Lines -->
  <line x1="460" y1="165" x2="250" y2="95" stroke="#222222" stroke-width="1.5"/>
  <line x1="250" y1="95" x2="110" y2="150" stroke="#1F1F1F" stroke-width="1.2"/>
  <line x1="460" y1="165" x2="140" y2="240" stroke="#222222" stroke-width="1.2"/>
  <line x1="460" y1="165" x2="310" y2="245" stroke="#222222" stroke-width="1.5"/>
  <line x1="460" y1="165" x2="610" y2="245" stroke="#222222" stroke-width="1.5"/>
  <line x1="610" y1="245" x2="780" y2="240" stroke="#1F1F1F" stroke-width="1"/>
  <line x1="460" y1="165" x2="670" y2="95" stroke="#222222" stroke-width="1.5"/>
  <line x1="670" y1="95" x2="810" y2="150" stroke="#1F1F1F" stroke-width="1.2"/>
  <line x1="460" y1="165" x2="460" y2="70" stroke="#222222" stroke-width="1.5"/>

  <!-- Animated Moving Data Packets -->
  <line x1="460" y1="165" x2="250" y2="95" stroke="#FF6A1F" stroke-width="2" class="packet-flow"/>
  <line x1="460" y1="165" x2="670" y2="95" stroke="#FF6A1F" stroke-width="2" class="packet-flow-fast"/>
  <line x1="460" y1="165" x2="310" y2="245" stroke="#FF6A1F" stroke-width="2" class="packet-flow"/>
  <line x1="460" y1="165" x2="610" y2="245" stroke="#FF6A1F" stroke-width="2" class="packet-flow-fast"/>
  <line x1="460" y1="165" x2="460" y2="70" stroke="#FFA066" stroke-width="2" class="packet-flow"/>
  <line x1="250" y1="95" x2="110" y2="150" stroke="#FFA066" stroke-width="1.5" class="packet-flow"/>
  <line x1="670" y1="95" x2="810" y2="150" stroke="#FFA066" stroke-width="1.5" class="packet-flow"/>

  <!-- Center Hub: [ AI / FULL-STACK ] -->
  <g transform="translate(460, 165)" class="pulse-hub">
    <circle cx="0" cy="0" r="42" fill="#141414" stroke="#FF6A1F" stroke-width="2"/>
    <circle cx="0" cy="0" r="50" fill="none" stroke="#FF6A1F" stroke-width="1" stroke-dasharray="3 3" opacity="0.4"/>
    <text x="0" y="-5" text-anchor="middle" fill="#FFFFFF" font-size="11" font-weight="700" class="font-mono">AI / FULL-STACK</text>
    <text x="0" y="10" text-anchor="middle" fill="#FF6A1F" font-size="9" font-weight="600" class="font-mono">CORE HUB</text>
  </g>

  <!-- Surrounding Nodes with subtle glow borders -->
  <g transform="translate(250, 95)">
    <circle cx="0" cy="0" r="24" fill="#141414" stroke="#FF6A1F" stroke-width="1.5"/>
    <text x="0" y="3" text-anchor="middle" fill="#F5F5F0" font-size="9" font-weight="700" class="font-mono">Next.js</text>
  </g>

  <g transform="translate(110, 150)">
    <circle cx="0" cy="0" r="22" fill="#121212" stroke="#444444" stroke-width="1.2"/>
    <text x="0" y="3" text-anchor="middle" fill="#A1A1A1" font-size="8.5" font-weight="600" class="font-mono">React</text>
  </g>

  <g transform="translate(140, 240)">
    <circle cx="0" cy="0" r="22" fill="#121212" stroke="#444444" stroke-width="1.2"/>
    <text x="0" y="3" text-anchor="middle" fill="#A1A1A1" font-size="8.5" font-weight="600" class="font-mono">TypeScript</text>
  </g>

  <g transform="translate(310, 245)">
    <circle cx="0" cy="0" r="24" fill="#141414" stroke="#FF6A1F" stroke-width="1.5"/>
    <text x="0" y="3" text-anchor="middle" fill="#F5F5F0" font-size="9" font-weight="700" class="font-mono">FastAPI</text>
  </g>

  <g transform="translate(460, 70)">
    <circle cx="0" cy="0" r="24" fill="#141414" stroke="#FFA066" stroke-width="1.5"/>
    <text x="0" y="3" text-anchor="middle" fill="#FFA066" font-size="9" font-weight="700" class="font-mono">Agents</text>
  </g>

  <g transform="translate(670, 95)">
    <circle cx="0" cy="0" r="24" fill="#141414" stroke="#FF6A1F" stroke-width="1.5"/>
    <text x="0" y="3" text-anchor="middle" fill="#F5F5F0" font-size="9" font-weight="700" class="font-mono">LLMs</text>
  </g>

  <g transform="translate(810, 150)">
    <circle cx="0" cy="0" r="22" fill="#121212" stroke="#444444" stroke-width="1.2"/>
    <text x="0" y="3" text-anchor="middle" fill="#A1A1A1" font-size="8.5" font-weight="600" class="font-mono">RAG</text>
  </g>

  <g transform="translate(610, 245)">
    <circle cx="0" cy="0" r="24" fill="#141414" stroke="#FF6A1F" stroke-width="1.5"/>
    <text x="0" y="3" text-anchor="middle" fill="#F5F5F0" font-size="9" font-weight="700" class="font-mono">Postgres</text>
  </g>

  <g transform="translate(780, 240)">
    <circle cx="0" cy="0" r="22" fill="#121212" stroke="#444444" stroke-width="1.2"/>
    <text x="0" y="3" text-anchor="middle" fill="#A1A1A1" font-size="8.5" font-weight="600" class="font-mono">Docker</text>
  </g>
</svg>
